<svg fillRule="evenodd" viewBox="0 0 24 24" fill="currentColor" xmlns="http://www.w3.org/2000/svg">
  <path d="M6.83339 9.14912C6.64041 8.99862 6.44694 8.92337 6.25396 8.92337H5.38657V14.3451H6.25446C6.44744 14.3451 6.64091 14.2699 6.83388 14.1194C7.02686 13.9689 7.12334 13.7431 7.12334 13.4416V9.82692C7.12285 9.5259 7.02586 9.29962 6.83339 9.14912ZM20.9573 0H3.04253C1.83892 0 0.862115 1.01668 0.859131 2.27313V20.9773C0.862115 22.2337 1.83892 23.2504 3.04253 23.2504H20.9573C22.1614 23.2504 23.1377 22.2337 23.1407 20.9773V2.27313C23.1377 1.01668 22.1609 0 20.9573 0ZM8.52838 13.4515C8.52838 14.4277 7.95095 15.9068 6.12316 15.9037H3.81542V7.3166H6.1719C7.93453 7.3166 8.52738 8.79362 8.52788 9.77035L8.52838 13.4515ZM13.5358 8.85019H10.8859V10.8441H12.5057V12.3788H10.8859V14.3721H13.5363V15.9068H10.4437C9.88865 15.9218 9.4271 15.4641 9.41318 14.8849V8.39192C9.39975 7.81326 9.83891 7.33269 10.3935 7.31815H13.5363L13.5358 8.85019ZM18.6904 14.8336C18.0339 16.4294 16.8576 16.1118 16.3309 14.8336L14.4146 7.31867H16.0345L17.5121 13.2206L18.9828 7.31867H20.6032L18.6904 14.8336Z"/>
</svg>