<svg  fillRule="evenodd" viewBox="0 0 24 24" fill="currentColor" xmlns="http://www.w3.org/2000/svg">
  <path d="M11.7852 0.291163C5.30332 0.291163 0 5.5321 0 11.9377C0 17.033 3.38823 21.4005 8.1023 23.0019C8.69156 23.1475 8.83888 22.7107 8.83888 22.4195C8.83888 22.1284 8.83888 21.4005 8.83888 20.3814C5.59795 21.1093 4.86138 18.9256 4.86138 18.9256C4.27212 17.6154 3.53555 17.1786 3.53555 17.1786C2.50435 16.4507 3.68286 16.4507 3.68286 16.4507C4.86138 16.5963 5.45064 17.6154 5.45064 17.6154C6.48184 19.5079 8.24962 18.9256 8.83888 18.6344C8.98619 17.9065 9.28082 17.3242 9.57545 17.033C6.92379 16.7419 4.27212 15.7228 4.27212 11.2098C4.27212 9.89954 4.71407 8.88047 5.45064 8.15256C5.30332 7.8614 4.86138 6.69675 5.59795 5.09535C5.59795 5.09535 6.62916 4.80419 8.83888 6.26C9.72276 5.96884 10.754 5.82326 11.7852 5.82326C12.8164 5.82326 13.8476 5.96884 14.7315 6.26C16.9412 4.80419 17.9724 5.09535 17.9724 5.09535C18.5616 6.69675 18.267 7.8614 18.1197 8.15256C18.8563 9.02605 19.2982 10.0451 19.2982 11.2098C19.2982 15.7228 16.4992 16.5963 13.8476 16.8874C14.2895 17.4698 14.7315 18.1977 14.7315 19.2168C14.7315 20.8181 14.7315 21.9828 14.7315 22.4195C14.7315 22.7107 14.8788 23.1475 15.6153 23.0019C20.3294 21.4005 23.7176 17.033 23.7176 11.9377C23.5703 5.5321 18.267 0.291163 11.7852 0.291163Z"/>
</svg>