<svg fillRule="evenodd" viewBox="0 0 25 24" fill="currentColor" xmlns="http://www.w3.org/2000/svg">
  <path 
    d="M22.2854 2.78829e-05H1.83465C1.60476 -0.00314007 1.3765 0.0387273 1.1629 0.123242C0.949292 0.207769 0.754527 0.333287 0.589738 0.492633C0.424938 0.651979 0.293336 0.842032 0.202443 1.05195C0.111549 1.26185 0.0631508 1.4875 0.0599999 1.716V22.2837C0.0631508 22.5122 0.111549 22.7379 0.202443 22.9478C0.293336 23.1577 0.424938 23.3477 0.589738 23.5071C0.754527 23.6665 0.949292 23.792 1.1629 23.8765C1.3765 23.9611 1.60476 24.0028 1.83465 23.9997H22.2854C22.5152 24.0028 22.7435 23.9611 22.9571 23.8765C23.1707 23.792 23.3655 23.6665 23.5303 23.5071C23.6951 23.3477 23.8266 23.1577 23.9175 22.9478C24.0085 22.7379 24.0569 22.5122 24.06 22.2837V1.716C24.0569 1.4875 24.0085 1.26185 23.9175 1.05195C23.8266 0.842032 23.6951 0.651979 23.5303 0.492633C23.3655 0.333287 23.1707 0.207769 22.9571 0.123242C22.7435 0.0387273 22.5152 -0.00314007 22.2854 2.78829e-05ZM7.33968 20.0878H3.71795V9.2879H7.33968V20.0878ZM5.52881 7.77592C5.02933 7.77592 4.55031 7.57869 4.19711 7.22764C3.84394 6.87657 3.64551 6.40043 3.64551 5.90395C3.64551 5.40747 3.84394 4.93132 4.19711 4.58026C4.55031 4.2292 5.02933 4.03197 5.52881 4.03197C5.79404 4.00207 6.06263 4.02819 6.317 4.10863C6.57135 4.18906 6.80576 4.322 7.00486 4.49872C7.20395 4.67544 7.36326 4.89198 7.47232 5.13413C7.58139 5.3763 7.63777 5.63863 7.63777 5.90395C7.63777 6.16926 7.58139 6.43159 7.47232 6.67376C7.36326 6.91592 7.20395 7.13245 7.00486 7.30917C6.80576 7.4859 6.57135 7.61883 6.317 7.69927C6.06263 7.7797 5.79404 7.80581 5.52881 7.77592ZM20.4021 20.0878H16.7803V14.2918C16.7803 12.8399 16.2612 11.8919 14.9453 11.8919C14.5381 11.8949 14.1415 12.0218 13.8091 12.2557C13.4767 12.4896 13.2244 12.8191 13.0862 13.1998C12.9916 13.4818 12.9507 13.779 12.9654 14.0758V20.0758H9.3437C9.3437 20.0758 9.3437 10.2599 9.3437 9.2759H12.9654V10.7999C13.2944 10.2324 13.773 9.76489 14.3494 9.44774C14.926 9.13056 15.5786 8.97572 16.2371 8.9999C18.6515 8.9999 20.4021 10.5479 20.4021 13.8718V20.0878Z"/>
</svg>