<svg fillRule="evenodd" viewBox="0 0 24 24" fill="currentColor" xmlns="http://www.w3.org/2000/svg">
<path d="M24 12C24 18.6274 18.6274 24 12 24C5.37259 24 0 18.6274 0 12C0 5.37259 5.37259 0 12 0C18.6274 0 24 5.37259 24 12ZM17.881 7.72383C18.5202 7.64751 19.1281 7.47772 19.6941 7.22655C19.2697 7.86128 18.7356 8.41536 18.1169 8.86286C18.1235 8.9983 18.1265 9.13423 18.1265 9.27118C18.1265 13.4427 14.9511 18.2529 9.1448 18.2529C7.362 18.2529 5.70299 17.7299 4.30574 16.8339C4.55283 16.8637 4.80452 16.8789 5.05919 16.8789C6.53777 16.8789 7.89912 16.3741 8.97953 15.5271C7.59853 15.5013 6.43268 14.5887 6.03096 13.335C6.22398 13.3713 6.42156 13.3906 6.62521 13.3906C6.91325 13.3906 7.19168 13.3526 7.45698 13.2799C6.01275 12.9898 4.92477 11.7144 4.92477 10.1848V10.1449C5.36313 10.3887 5.85349 10.524 6.35486 10.5395C5.50793 9.97357 4.95056 9.00739 4.95056 7.91232C4.95056 7.33376 5.10617 6.7915 5.37803 6.32512C6.93497 8.23475 9.26101 9.4915 11.8847 9.62335C11.8312 9.39191 11.8033 9.15086 11.8033 8.90377C11.8033 7.15989 13.2168 5.747 14.9597 5.747C15.8677 5.747 16.6884 6.13002 17.2639 6.7435C17.9712 6.60459 18.6494 6.34548 19.269 5.97743C19.0331 6.71417 18.5333 7.33319 17.881 7.72383Z"/>
</svg>